<svg class="icon" viewBox="0 0 1024 1024" xmlns="http://www.w3.org/2000/svg" width="200" height="200"><defs><style/></defs><path d="M827.938 228.83a341.504 341.504 0 00-631.842 0A254.498 254.498 0 000 477.798c0 141.176 114.825 256 256 256h97.587a34.133 34.133 0 100-68.266H256A187.938 187.938 0 0168.267 477.798a186.71 186.71 0 01158.378-185.48l20.31-3.175 6.656-19.456C291.465 159.37 395.298 85.265 512 85.265a273.067 273.067 0 01258.355 184.422l6.69 19.456 20.31 3.175a186.71 186.71 0 01158.378 185.48c0 103.493-84.24 187.734-187.733 187.734H664.235a34.133 34.133 0 100 68.266H768c141.175 0 256-114.824 256-256A254.498 254.498 0 00827.938 228.83z"/><path d="M658.978 808.414l-112.845 92.365V443.665a34.133 34.133 0 00-68.266 0V900.78l-113.87-93.253a34.1 34.1 0 10-43.246 52.805l169.643 138.922a34.133 34.133 0 0043.28 0L702.26 861.184a34.133 34.133 0 10-43.28-52.77z"/></svg>