<svg xmlns="http://www.w3.org/2000/svg" viewBox="0 0 1024 1024"><rect x="370.79" y="115" width="283.18" height="117.18" rx="35.03" ry="35.03"/><path d="M745.69 150.94h-23.37v77.48A50.77 50.77 0 01671.69 279H353.06a50.77 50.77 0 01-50.62-50.62v-77.44h-23.38A83.3 83.3 0 00196 234v592.79a83.3 83.3 0 0083.06 83.06h466.63a83.3 83.3 0 0083.06-83.06V234a83.3 83.3 0 00-83.06-83.06zM668 465.85H375a32 32 0 01-32-32 32 32 0 0132-32h293a32 32 0 0132 32 32 32 0 01-32 32zm0 150H375a32 32 0 01-32-32 32 32 0 0132-32h293a32 32 0 0132 32 32 32 0 01-32 32zm0 146H375a32 32 0 01-32-32 32 32 0 0132-32h293a32 32 0 0132 32 32 32 0 01-32 32z"/></svg>