<svg xmlns="http://www.w3.org/2000/svg" viewBox="0 0 1024 1024"><path d="M790.76 65.85H233.24A65.44 65.44 0 00168 131.09V896.6a65.44 65.44 0 0065.24 65.24h393.83a123.59 123.59 0 0093.87-43.2l105.34-123a123.59 123.59 0 0029.72-80.4V131.09a65.44 65.44 0 00-65.24-65.24zM597 710.72a25.2 25.2 0 01-25.13 25.13H328.13A25.2 25.2 0 01303 710.72V701a25.2 25.2 0 0125.13-25.13h243.74A25.2 25.2 0 01597 701zm125-219.37a30.09 30.09 0 01-30 30H333a30.09 30.09 0 01-30-30 30.09 30.09 0 0130-30h359a30.09 30.09 0 0130 30zm0-214.5a30.09 30.09 0 01-30 30H333a30.09 30.09 0 01-30-30 30.09 30.09 0 0130-30h359a30.09 30.09 0 0130 30z"/></svg>