<svg xmlns="http://www.w3.org/2000/svg" viewBox="0 0 1024 1024"><path d="M908.2 406.63A141.07 141.07 0 01803.27 229.1a42.79 42.79 0 00-19.43-49.28l-114.34-66a42.79 42.79 0 00-52.39 7.82 141.07 141.07 0 01-204.17.07 42.78 42.78 0 00-52.37-7.8l-114.4 66a42.78 42.78 0 00-19.43 49.25A141.07 141.07 0 01122 406.58a42.77 42.77 0 00-33.74 41.63v130.48A42.77 42.77 0 00122 620.32a141.08 141.08 0 01103.05 182.79A42.76 42.76 0 00244 854l111.66 64.47a42.76 42.76 0 0053.48-9 141.08 141.08 0 01211.83.07 42.76 42.76 0 0053.5 9.06l111.62-64.44A42.76 42.76 0 00805 803.21a141.08 141.08 0 01103.2-182.94 42.77 42.77 0 0033.8-41.64V448.28a42.77 42.77 0 00-33.8-41.65zm-393.08 246.5a137 137 0 11137-137 137 137 0 01-137 137z"/></svg>