<svg xmlns="http://www.w3.org/2000/svg" viewBox="0 0 1024 1024"><path d="M825.3 66.95H621c-36.69 0-66.7 31.15-66.7 69.23V807.9h-64.61V136.17c0-38.08-30-69.23-66.7-69.23H218.7C182 66.95 152 98.1 152 136.17v759.35c0 38.08 30 69.23 66.7 69.23H423c36.69 0 66.7-31.15 66.7-69.23v-9.74h64.62v9.74c0 38.08 30 69.23 66.7 69.23H825.3c36.69 0 66.7-31.15 66.7-69.23V136.17c0-38.07-30-69.22-66.7-69.22zM300 881.7a7.22 7.22 0 01-7.06 7.33h-67.18a7.22 7.22 0 01-7.06-7.33V812a7.22 7.22 0 017.06-7.33h67.18A7.22 7.22 0 01300 812zm123-666.28A11.44 11.44 0 01411.79 227H229.9a11.44 11.44 0 01-11.19-11.61v-61.11a11.44 11.44 0 0111.19-11.61h181.9a11.44 11.44 0 0111.2 11.61zM700.23 881.7a7.22 7.22 0 01-7.06 7.33H626a7.22 7.22 0 01-7.06-7.33V812a7.22 7.22 0 017.06-7.33h67.18a7.22 7.22 0 017.06 7.33zm123-666.28A11.44 11.44 0 01812 227H630.12a11.44 11.44 0 01-11.19-11.61v-61.11a11.44 11.44 0 0111.19-11.61H812a11.44 11.44 0 0111.19 11.61z"/></svg>