<svg class="icon" viewBox="0 0 1024 1024" xmlns="http://www.w3.org/2000/svg" width="200" height="200"><defs><style/></defs><path d="M827.938 245.965a341.504 341.504 0 00-631.842 0A254.498 254.498 0 000 494.933c0 141.176 114.825 256 256 256h97.587a34.133 34.133 0 100-68.266H256A187.938 187.938 0 0168.267 494.933a186.71 186.71 0 01158.378-185.48l20.31-3.175 6.656-19.456C291.465 176.503 395.298 102.4 512 102.4a273.067 273.067 0 01258.355 184.422l6.69 19.456 20.31 3.175a186.71 186.71 0 01158.378 185.48c0 103.493-84.24 187.734-187.733 187.734H664.235a34.133 34.133 0 100 68.266H768c141.175 0 256-114.824 256-256a254.498 254.498 0 00-196.062-248.968z"/><path d="M658.978 573.918a34.133 34.133 0 1043.247-52.839L533.641 383.044a34.133 34.133 0 00-43.282 0L320.717 521.967a34.167 34.167 0 0021.606 60.552 33.86 33.86 0 0021.607-7.748l113.937-93.218v457.114a34.133 34.133 0 0068.266 0V481.553l112.845 92.365z"/></svg>